<svg width="24" height="25" viewBox="0 0 24 25" fill="none" xmlns="http://www.w3.org/2000/svg">
<path d="M16.3813 18.4866L10.1719 12.0697C9.67911 12.4771 9.11237 12.7997 8.47172 13.0373C7.83107 13.275 7.14934 13.3938 6.42656 13.3938C4.63601 13.3938 3.12078 12.7528 1.88087 11.4708C0.640961 10.1888 0.0206771 8.62291 0.0200201 6.77321C0.019363 4.92351 0.639647 3.35765 1.88087 2.07562C3.1221 0.7936 4.63733 0.152588 6.42656 0.152588C8.21579 0.152588 9.73134 0.7936 10.9732 2.07562C12.2151 3.35765 12.8351 4.92351 12.8331 6.77321C12.8331 7.52015 12.7181 8.22465 12.4881 8.88671C12.2581 9.54877 11.946 10.1344 11.5518 10.6437L17.7612 17.0606L16.3813 18.4866ZM6.42656 11.3567C7.65858 11.3567 8.70597 10.9113 9.56872 10.0204C10.4315 9.12947 10.8625 8.04708 10.8619 6.77321C10.8612 5.49933 10.4301 4.41729 9.56872 3.52707C8.70728 2.63685 7.6599 2.19106 6.42656 2.1897C5.19322 2.18834 4.14616 2.63413 3.28538 3.52707C2.42461 4.42 1.99323 5.50205 1.99126 6.77321C1.98929 8.04437 2.42066 9.12675 3.28538 10.0204C4.1501 10.914 5.19716 11.3594 6.42656 11.3567Z" fill="black"/>
</svg>
